<?xml version="1.0" standalone="no"?>
<!DOCTYPE svg PUBLIC "-//W3C//DTD SVG 20010904//EN"
 "http://www.w3.org/TR/2001/REC-SVG-20010904/DTD/svg10.dtd">
<svg version="1.0" xmlns="http://www.w3.org/2000/svg"
 width="500.000000pt" height="500.000000pt" viewBox="0 0 500.000000 500.000000"
 preserveAspectRatio="xMidYMid meet">
<metadata>
Created by potrace 1.11, written by Peter Selinger 2001-2013
</metadata>
<g transform="translate(0.000000,500.000000) scale(0.100000,-0.100000)"
fill="#000000" stroke="none">
<path d="M2550 4805 c-14 -17 -100 -18 -100 -1 0 8 -2 8 -8 0 -4 -7 -25 -11
-47 -10 -22 1 -42 -2 -45 -6 -3 -4 -17 -1 -31 6 -21 11 -26 11 -26 0 0 -7 5
-10 10 -7 6 3 7 1 3 -5 -9 -14 -38 -3 -30 12 3 6 -2 2 -10 -8 -10 -13 -16 -15
-16 -7 0 9 -4 10 -12 4 -7 -5 -25 -8 -41 -7 -17 2 -25 -1 -21 -8 4 -6 -1 -6
-14 1 -14 7 -23 8 -27 1 -4 -6 -11 -8 -16 -5 -5 4 -9 0 -9 -7 0 -10 -2 -10 -9
1 -6 10 -10 10 -16 1 -4 -6 -13 -9 -21 -6 -8 3 -14 2 -14 -3 0 -4 -16 -7 -34
-6 -19 1 -33 -2 -30 -7 3 -4 -7 -8 -21 -8 -18 0 -24 -4 -19 -12 5 -8 1 -8 -10
1 -14 12 -19 12 -26 1 -4 -7 -17 -11 -29 -7 -12 3 -19 2 -16 -3 9 -14 -27 -21
-43 -8 -9 7 -13 9 -10 3 7 -12 -11 -29 -32 -32 -34 -4 -63 -13 -76 -24 -8 -6
-14 -8 -14 -4 0 4 -7 2 -15 -5 -8 -6 -18 -9 -24 -6 -5 3 -11 1 -13 -4 -2 -6
-11 -12 -20 -13 -9 -2 -24 -9 -34 -17 -16 -13 -17 -13 -10 0 4 8 0 6 -9 -5 -9
-11 -17 -18 -18 -16 -1 2 -12 1 -25 -3 -13 -5 -20 -12 -15 -19 4 -7 -2 -5 -13
3 -10 8 -16 10 -12 6 10 -11 -41 -38 -55 -29 -6 4 -7 1 -2 -7 6 -10 4 -12 -9
-7 -14 6 -17 3 -12 -8 4 -11 0 -15 -12 -13 -10 2 -16 -3 -14 -10 1 -8 -2 -11
-8 -7 -6 4 -27 -6 -47 -21 -20 -15 -33 -21 -28 -13 4 8 -2 4 -14 -9 -12 -12
-27 -19 -33 -16 -7 4 -8 2 -4 -4 7 -11 -6 -17 -27 -13 -5 1 -6 -2 -3 -7 3 -5
-8 -16 -25 -26 -16 -9 -46 -33 -67 -52 -20 -18 -42 -34 -47 -34 -6 0 -17 -9
-25 -20 -8 -11 -20 -20 -28 -20 -7 0 -10 -4 -7 -10 3 -5 1 -10 -6 -10 -6 0
-23 -12 -37 -27 -13 -16 -21 -22 -17 -14 6 10 4 12 -4 7 -7 -5 -10 -14 -7 -21
3 -9 -2 -12 -15 -10 -11 2 -17 1 -15 -4 3 -4 1 -13 -4 -21 -7 -12 -11 -12 -27
1 -16 12 -17 12 -6 -1 14 -19 -9 -56 -28 -44 -8 4 -10 3 -5 -4 7 -12 -33 -59
-47 -54 -5 1 -6 -2 -2 -8 3 -5 1 -10 -4 -10 -6 0 -10 -3 -9 -7 4 -11 -45 -59
-55 -55 -5 1 -6 -2 -2 -8 3 -5 1 -10 -6 -10 -7 0 -10 -3 -6 -6 3 -3 1 -11 -4
-18 -42 -51 -54 -66 -76 -103 -14 -24 -28 -43 -33 -43 -4 0 -10 -9 -13 -21 -4
-13 -10 -18 -18 -13 -8 4 -10 3 -5 -5 4 -6 2 -18 -4 -26 -6 -8 -9 -19 -5 -24
4 -7 -1 -8 -11 -4 -11 4 -15 3 -11 -4 4 -6 1 -18 -7 -26 -8 -8 -12 -17 -9 -21
3 -3 -1 -8 -10 -12 -9 -3 -14 -11 -11 -18 3 -7 -2 -19 -11 -26 -8 -7 -15 -17
-15 -23 0 -6 -8 -19 -18 -30 -9 -11 -11 -17 -3 -12 9 5 7 -1 -4 -19 -10 -14
-22 -23 -29 -19 -7 5 -7 2 1 -8 15 -19 1 -45 -18 -33 -11 6 -12 5 -3 -7 8 -10
6 -27 -11 -67 -11 -29 -25 -49 -30 -45 -4 5 -5 3 -2 -3 7 -12 -16 -102 -34
-136 -5 -10 -9 -27 -9 -38 0 -12 -4 -19 -8 -16 -5 3 -6 -9 -4 -26 4 -24 2 -29
-9 -23 -11 7 -10 4 1 -10 8 -10 10 -16 3 -12 -6 4 -14 3 -18 -3 -3 -5 -2 -10
4 -10 6 0 8 -7 5 -15 -4 -8 -11 -12 -18 -8 -8 4 -8 2 1 -7 12 -13 7 -40 -11
-52 -7 -5 -6 -8 3 -8 11 0 11 -3 1 -15 -10 -12 -10 -15 1 -15 9 0 10 -3 4 -8
-6 -4 -12 -20 -14 -37 -1 -16 -8 -33 -15 -37 -8 -6 -8 -8 2 -8 6 0 12 -5 12
-11 0 -5 -5 -7 -11 -3 -7 4 -7 -1 1 -16 7 -13 8 -20 1 -16 -6 4 -9 -6 -7 -29
2 -19 -1 -35 -6 -35 -6 0 -5 -6 2 -15 7 -8 8 -15 3 -15 -5 0 -7 -25 -5 -56 2
-31 -1 -54 -6 -50 -5 3 -9 -1 -9 -9 0 -8 3 -12 7 -10 4 2 7 -12 8 -31 1 -25
-2 -33 -11 -27 -9 5 -9 4 0 -8 13 -16 12 -36 -1 -58 -6 -9 -5 -12 1 -8 6 4 14
0 17 -9 3 -8 2 -12 -4 -9 -14 9 -12 -9 2 -23 9 -9 8 -12 -8 -13 -18 0 -18 -1
1 -9 11 -5 14 -9 7 -9 -10 -1 -10 -6 -2 -21 8 -15 8 -20 -1 -20 -8 0 -9 -4 0
-13 8 -10 7 -17 -2 -27 -8 -9 -9 -11 0 -6 6 3 14 2 18 -4 3 -5 1 -10 -6 -10
-9 0 -9 -3 0 -14 8 -10 9 -16 1 -21 -5 -3 -10 -12 -10 -18 0 -7 4 -6 10 3 7
11 10 6 10 -20 1 -56 4 -80 10 -80 3 0 6 -15 7 -32 4 -49 6 -58 13 -58 7 0 8
-4 14 -55 2 -16 4 -30 6 -30 1 0 4 -16 7 -35 2 -19 9 -38 15 -41 6 -4 8 -17 5
-29 -3 -13 0 -23 8 -26 7 -3 12 -14 10 -25 -3 -13 2 -19 13 -19 11 0 13 -3 6
-8 -8 -5 -5 -21 11 -54 12 -26 20 -49 17 -52 -3 -4 0 -6 7 -6 7 0 10 -4 7 -9
-3 -4 1 -17 9 -27 8 -10 15 -27 15 -36 0 -10 5 -18 11 -18 5 0 7 -4 4 -10 -3
-5 -1 -10 5 -10 6 0 9 -4 5 -9 -3 -5 -1 -12 5 -16 6 -4 8 -11 5 -16 -4 -5 -1
-9 6 -9 7 0 10 -3 6 -6 -3 -4 4 -15 16 -26 12 -11 16 -17 10 -13 -19 9 -16 -4
5 -23 10 -10 11 -12 3 -7 -10 7 -8 1 4 -17 11 -15 23 -28 28 -28 4 0 7 -9 7
-20 0 -11 6 -20 14 -20 10 0 13 -7 11 -20 -2 -11 0 -18 6 -15 5 4 9 -1 9 -9 0
-9 4 -16 8 -16 4 0 19 -18 32 -40 14 -22 28 -40 33 -40 4 0 7 -7 7 -15 0 -8 5
-15 10 -15 6 0 10 -7 10 -16 0 -8 4 -12 10 -9 5 3 10 -1 10 -10 0 -9 14 -30
30 -47 17 -16 28 -34 25 -39 -4 -5 2 -6 11 -2 13 5 16 3 11 -10 -3 -9 -2 -17
4 -17 13 0 69 -58 69 -71 0 -5 7 -9 16 -9 8 0 12 -5 9 -10 -3 -6 1 -10 10 -10
10 0 13 -5 9 -12 -5 -8 -2 -9 9 -5 9 3 16 3 15 -1 -4 -12 26 -52 39 -52 7 0
13 -5 13 -11 0 -5 6 -7 12 -3 7 4 10 4 6 -1 -7 -7 14 -35 26 -35 15 0 46 -42
39 -53 -4 -7 0 -7 10 2 9 7 17 9 17 4 0 -5 11 -16 25 -23 13 -7 22 -17 19 -22
-3 -4 1 -8 9 -8 7 0 23 -9 35 -20 12 -11 26 -20 32 -20 5 0 10 -4 10 -10 0 -5
7 -10 15 -10 8 0 15 -5 15 -11 0 -5 5 -7 10 -4 6 3 10 -1 10 -9 0 -8 5 -18 12
-22 7 -4 8 -3 4 4 -4 7 -2 12 4 12 6 0 13 -7 16 -15 4 -8 15 -15 25 -15 10 0
19 -4 19 -10 0 -5 7 -10 15 -10 9 0 18 -7 21 -15 4 -8 11 -12 17 -8 5 3 16 -2
24 -12 7 -11 13 -15 13 -11 0 4 7 1 15 -8 9 -8 22 -13 30 -10 18 7 19 -7 2
-26 -10 -12 -9 -12 5 -1 19 14 58 6 58 -11 0 -6 3 -9 6 -5 8 8 64 -13 64 -24
0 -5 11 -9 25 -9 14 0 25 -5 25 -11 0 -5 5 -7 10 -4 6 3 10 0 10 -7 0 -10 2
-10 9 1 7 10 12 8 25 -10 9 -13 16 -18 16 -11 0 6 5 12 11 12 5 0 7 -4 4 -10
-3 -6 1 -7 9 -4 9 3 16 1 16 -6 0 -6 5 -8 11 -5 5 4 19 -1 29 -10 10 -9 21
-12 24 -7 4 7 15 6 30 -1 13 -7 23 -14 21 -18 -2 -3 2 -6 10 -6 8 0 12 3 10 7
-2 4 2 7 10 7 8 0 11 -5 8 -10 -3 -5 0 -7 8 -5 8 3 23 -2 33 -11 11 -9 16 -10
12 -3 -4 6 -2 12 3 12 6 0 11 -4 11 -9 0 -5 14 -8 31 -7 16 1 33 -2 36 -7 3
-4 11 -6 18 -3 7 2 16 2 19 -1 3 -4 22 -7 42 -9 20 -1 40 -8 45 -16 7 -10 9
-10 9 2 0 13 1 13 10 0 8 -12 10 -12 10 -1 0 11 3 11 15 1 12 -10 15 -10 15 1
0 9 3 10 8 3 9 -14 45 -27 37 -14 -3 6 -1 10 4 10 6 0 11 -6 11 -12 0 -10 3
-9 9 1 7 11 9 11 14 0 4 -11 6 -11 6 -1 1 9 6 10 19 4 9 -5 28 -8 41 -6 13 3
29 -1 36 -6 8 -6 16 -7 19 -2 3 5 49 9 103 8 54 -1 106 2 116 6 17 9 21 1 18
-32 -2 -13 0 -13 8 -1 5 8 7 20 4 27 -6 15 13 28 22 14 4 -6 13 -7 23 -2 9 5
40 8 69 8 28 -1 49 3 46 8 -4 5 5 6 20 2 14 -3 29 -2 32 4 3 5 16 9 28 8 29
-1 50 5 59 17 5 6 8 5 8 -3 0 -10 4 -9 16 3 15 14 17 14 30 -2 13 -16 13 -16
8 -1 -5 14 2 19 35 24 23 4 41 10 41 14 0 11 34 7 42 -5 4 -6 8 -2 8 9 0 14 6
17 25 14 14 -3 28 -1 32 5 4 6 1 7 -7 2 -9 -5 -11 -4 -6 3 5 9 13 9 26 2 13
-7 21 -7 26 2 5 7 3 8 -6 3 -9 -5 -11 -4 -6 3 4 7 16 12 26 12 10 0 22 5 25
10 4 6 11 8 16 5 5 -4 9 -1 9 5 0 6 5 8 10 5 6 -3 10 -1 10 5 0 6 4 9 9 5 5
-3 12 -1 16 5 3 5 17 10 31 10 13 0 24 5 24 10 0 6 7 10 16 10 9 0 12 5 8 12
-4 7 -3 8 5 4 6 -4 19 -2 28 6 12 9 15 9 9 0 -4 -6 -2 -12 3 -12 6 0 11 10 12
23 0 12 3 16 6 10 3 -9 11 -8 31 5 15 9 30 20 33 25 3 5 9 8 13 8 20 -3 26 0
20 11 -5 8 -2 9 9 5 11 -4 21 1 28 16 12 21 12 21 20 2 4 -11 8 -14 8 -7 1 7
10 23 22 35 19 20 20 21 14 2 -5 -15 -2 -13 11 6 11 14 27 25 37 23 9 -1 15 1
12 5 -2 5 15 22 39 40 47 33 62 39 50 18 -4 -7 -3 -8 2 -4 5 5 9 16 9 25 0 11
7 16 18 14 10 -2 17 3 17 14 0 10 5 14 14 11 11 -4 13 -1 9 10 -4 11 -3 14 6
9 8 -5 14 -1 18 13 3 12 10 21 15 21 5 0 21 11 35 24 15 14 30 23 35 20 4 -3
5 2 2 11 -5 11 -2 14 12 8 12 -4 15 -3 10 5 -4 7 -1 15 8 18 9 3 16 12 16 19
0 7 8 19 18 26 15 13 16 12 4 -3 -9 -11 -10 -18 -2 -23 6 -4 10 -3 9 2 -4 16
13 43 24 36 5 -3 7 -1 4 4 -7 12 53 80 66 75 5 -1 6 2 3 7 -7 11 18 34 27 25
4 -4 4 3 2 16 -3 17 -1 20 12 16 11 -5 14 -2 9 10 -4 11 -2 15 8 11 10 -4 14
0 11 14 -2 11 0 17 6 14 5 -4 9 -1 9 5 0 6 5 8 13 4 9 -6 9 -4 -1 8 -11 14
-10 17 7 23 10 3 25 13 33 23 12 15 11 16 -4 3 -23 -18 -23 -10 1 17 10 12 22
18 26 14 5 -4 5 1 2 11 -4 9 -2 17 3 17 6 0 10 7 10 15 0 8 5 15 10 15 6 0 10
7 10 16 0 10 6 14 14 11 10 -4 13 -1 10 8 -6 14 22 65 43 78 8 5 11 13 7 18
-3 5 3 17 13 27 11 9 13 13 6 8 -10 -6 -12 -4 -7 8 3 9 10 16 15 16 5 0 9 9 9
20 0 12 7 20 18 20 14 0 15 2 2 10 -14 9 -7 14 13 11 5 -1 6 3 2 9 -9 14 4 52
16 45 5 -3 6 1 3 9 -3 9 -1 16 6 16 6 0 8 5 5 10 -4 6 1 22 9 35 9 14 14 25
10 25 -4 0 -1 7 6 15 6 8 9 19 5 25 -3 5 -1 10 5 10 6 0 8 5 5 10 -3 6 -1 10
5 10 6 0 10 8 8 18 -2 9 2 16 8 15 7 -1 10 6 7 17 -3 11 1 28 8 37 8 9 9 14 2
10 -8 -5 -8 -1 0 17 7 13 14 23 17 21 3 -2 6 11 6 28 2 35 6 56 15 72 4 6 5
18 4 28 -2 9 0 17 4 17 4 0 7 10 6 23 -1 12 5 30 13 40 15 16 14 17 -4 12 -18
-6 -18 -6 -1 8 14 11 15 16 5 20 -8 3 -9 6 -1 6 6 1 9 10 5 23 -4 16 -2 19 9
13 11 -7 12 -6 2 6 -10 12 -10 18 0 29 10 10 9 11 -3 5 -12 -7 -13 -6 -4 6 7
8 10 26 8 42 -2 19 1 25 9 20 7 -4 6 0 -2 10 -10 12 -10 17 -2 17 8 0 10 8 6
20 -4 12 -1 28 7 37 9 12 9 15 1 9 -16 -9 -16 -1 -3 25 8 14 7 19 -1 19 -8 0
-8 4 1 15 10 12 10 15 0 15 -9 0 -9 4 -2 13 7 8 7 18 2 27 -5 8 -5 21 1 32 7
13 6 18 -3 18 -9 0 -9 3 -1 11 8 8 8 18 1 35 -8 17 -8 27 1 38 7 9 8 17 2 20
-5 3 -7 15 -4 26 3 13 0 20 -8 20 -12 0 -12 2 0 9 8 5 9 11 3 15 -5 3 -8 19
-6 36 2 19 -1 30 -9 30 -8 0 -7 4 3 10 13 9 13 10 0 10 -13 0 -13 1 0 10 8 5
10 10 5 10 -6 0 -11 9 -12 20 -1 13 3 18 10 14 7 -3 5 0 -3 8 -9 7 -15 25 -14
41 2 15 -1 27 -5 27 -4 0 -8 10 -8 23 -2 26 -7 48 -14 62 -3 6 -5 25 -5 43 1
17 -3 32 -7 32 -5 0 -5 5 -2 10 3 6 1 10 -4 10 -6 0 -11 13 -11 28 0 15 -4 32
-10 38 -5 5 -10 24 -12 42 -1 17 -5 32 -9 32 -4 0 -10 7 -13 16 -4 9 -2 13 5
8 8 -4 7 0 0 15 -7 11 -16 21 -20 21 -5 0 -7 8 -4 19 3 10 -2 21 -10 24 -9 3
-13 16 -12 31 2 14 -1 26 -6 26 -5 0 -9 7 -9 16 0 8 -4 13 -9 10 -5 -3 -8 7
-7 23 1 22 -2 27 -13 23 -9 -3 -12 -1 -7 6 3 6 1 14 -5 17 -5 4 -8 13 -5 20 2
7 -3 16 -12 20 -14 5 -14 7 -2 15 13 8 12 10 -2 10 -11 0 -18 8 -18 21 0 13
-4 18 -12 13 -8 -5 -9 -2 -5 10 4 10 1 19 -8 22 -8 4 -12 10 -9 15 3 5 -2 12
-10 15 -9 3 -16 13 -16 20 0 8 -9 25 -20 37 -11 12 -18 27 -16 34 3 7 -1 13
-9 13 -13 0 -16 4 -15 25 1 12 -26 32 -35 27 -5 -3 -4 2 4 12 8 9 10 16 4 14
-14 -4 -54 42 -47 54 3 4 2 7 -3 6 -4 -2 -9 1 -10 6 -1 5 -14 17 -30 27 -15
10 -22 19 -15 19 10 0 10 3 -2 15 -8 8 -20 15 -26 15 -7 0 -9 7 -6 17 4 10 4
14 0 11 -8 -9 -34 16 -34 33 0 7 -3 10 -6 6 -8 -7 -28 12 -37 36 -3 9 -14 17
-22 17 -9 0 -14 4 -11 9 3 5 -1 11 -9 15 -8 3 -15 13 -15 21 0 9 -4 14 -9 11
-11 -7 -53 29 -44 38 3 3 -1 6 -10 6 -9 0 -22 9 -29 20 -7 11 -19 20 -26 20
-7 0 -10 5 -7 10 3 6 -1 10 -10 10 -11 0 -15 5 -12 14 4 10 0 12 -15 8 -14 -3
-19 -1 -14 6 4 7 1 12 -8 12 -9 0 -16 5 -16 11 0 5 -4 7 -10 4 -5 -3 -10 0
-10 8 0 8 -13 20 -30 27 -16 7 -30 17 -30 22 0 5 -5 6 -12 2 -7 -5 -9 -2 -6 7
4 10 -1 15 -15 16 -11 1 -24 8 -28 15 -5 7 -9 9 -9 5 0 -4 -11 3 -23 17 -13
14 -27 23 -31 19 -4 -4 -10 -2 -14 4 -4 6 -14 13 -22 15 -8 2 -23 11 -34 20
-10 10 -23 15 -28 12 -4 -3 -8 0 -8 5 0 6 -6 11 -14 11 -8 0 -16 4 -18 9 -1 5
-10 11 -18 13 -8 2 -21 9 -29 16 -11 11 -15 11 -22 0 -7 -10 -9 -9 -9 5 0 9
-7 17 -16 17 -9 0 -12 5 -8 13 5 8 3 8 -9 -2 -14 -11 -18 -11 -23 2 -3 8 -13
14 -22 13 -9 -2 -23 3 -30 11 -8 7 -18 11 -23 8 -5 -4 -9 -1 -9 5 0 6 -4 9 -9
6 -4 -3 -16 1 -27 8 -10 8 -25 11 -32 8 -8 -3 -23 6 -34 19 -11 13 -17 18 -13
12 4 -8 0 -13 -9 -13 -9 0 -16 4 -16 9 0 5 -13 8 -29 7 -16 -1 -29 3 -28 8 1
6 -9 10 -22 8 -17 -3 -21 0 -15 10 5 9 2 8 -11 -2 -17 -13 -18 -13 -13 0 5 13
-1 15 -28 12 -22 -3 -34 0 -34 8 0 7 -7 10 -16 6 -8 -3 -25 -1 -36 5 -15 8
-18 8 -14 0 5 -7 1 -9 -8 -5 -9 3 -13 11 -9 18 3 6 0 6 -8 -2 -11 -10 -17 -8
-31 10 -12 15 -16 17 -12 6 5 -14 1 -16 -18 -12 -12 4 -40 7 -60 8 -21 0 -38
4 -38 7 0 3 -10 5 -22 4 -13 -1 -31 2 -40 6 -10 6 -19 5 -23 -1 -4 -6 -11 -8
-16 -4 -6 3 -33 6 -60 6 -43 -1 -49 1 -39 14 7 8 10 14 7 14 -2 0 -10 -7 -17
-15z"/>
<path d="M4756 2033 c-6 -14 -5 -15 5 -6 7 7 10 15 7 18 -3 3 -9 -2 -12 -12z"/>
<path d="M275 1960 c3 -5 8 -10 11 -10 2 0 4 5 4 10 0 6 -5 10 -11 10 -5 0 -7
-4 -4 -10z"/>
<path d="M613 1205 c0 -8 4 -12 9 -9 5 3 6 10 3 15 -9 13 -12 11 -12 -6z"/>
</g>
</svg>
